Coordinates
version=1
nRows=11
nColumns=36
inDegrees=yes

Units are S.I. units (second, meters, Newtons, ...)
If the header above contains a line with 'inDegrees', this indicates whether rotational values are in degrees (yes) or radians (no).

endheader
time	pelvis_tilt	pelvis_list	pelvis_rotation	pelvis_tx	pelvis_ty	pelvis_tz	hip_flexion_r	hip_adduction_r	hip_rotation_r	knee_angle_r	knee_angle_r_beta	ankle_angle_r	subtalar_angle_r	mtp_angle_r	hip_flexion_l	hip_adduction_l	hip_rotation_l	knee_angle_l	knee_angle_l_beta	ankle_angle_l	subtalar_angle_l	mtp_angle_l	lumbar_extension	lumbar_bending	lumbar_rotation	arm_flex_r	arm_add_r	arm_rot_r	elbow_flex_r	pro_sup_r	arm_flex_l	arm_add_l	arm_rot_l	elbow_flex_l	pro_sup_l
      4.45000000	     -3.04560728	     -3.55444707	     39.00969649	     -0.41562665	      1.03119918	     -0.09635249	     15.60912942	      1.45966897	     -8.57241178	     20.34307699	      0.35505367	      5.63122940	    -31.92577042	     -7.49999987	      1.96804389	     -0.49705203	      0.54157173	      6.73361480	      0.11752375	     12.83564722	     -4.44082264	     -7.49999987	     -5.46186913	      2.72873063	      9.80134871	     -4.87136857	     -4.12970217	    -17.12906525	     31.99223599	    103.17856687	     14.36976196	     -2.52856858	    -18.77082903	     17.57472272	     94.67029003
      4.46666670	     -2.70271381	     -3.54803876	     41.90554079	     -0.41911652	      1.04084278	     -0.09727232	     15.35634955	      0.85015668	    -10.87402509	     20.10833921	      0.35095673	      5.01809245	    -32.53820780	     -7.49999987	      1.08882034	     -0.34882540	      2.88605724	      4.12879773	      0.07206111	     11.97067431	     -2.97801834	     -7.49999987	     -5.62385386	      2.66442482	      8.24431857	     -4.36341900	     -3.73495075	    -16.80008910	     30.84218294	    100.44462999	     15.52610114	     -2.18077123	    -18.87261284	     16.97076519	     92.42285905
      4.48333330	     -2.42542713	     -3.47781422	     44.22069892	     -0.42612596	      1.04099336	     -0.10389564	     14.56265836	      0.25673810	    -13.01729979	     19.00565360	      0.33171123	      4.62606277	    -32.67990446	     -7.49999987	      0.49715655	     -0.25170177	      4.70157783	      2.58943703	      0.04519420	     11.29159713	     -1.60485839	     -7.49999987	     -5.85892748	      2.71482770	      7.04310399	     -4.27121110	     -3.52935116	    -17.16914737	     30.81373514	    100.83725353	     16.04823230	     -1.83090872	    -18.54275121	     17.01138631	     92.93673495
      4.50000000	     -2.22969160	     -3.37078184	     46.61510429	     -0.44038530	      1.04207241	     -0.10329126	     14.03708915	     -0.30034164	    -14.59754562	     18.19007052	      0.31747662	      4.31924584	    -33.07802707	     -7.49999987	      0.66124377	     -0.08948742	      6.71307742	      2.15616136	      0.03763212	     11.03965800	     -0.47768424	     -7.49999987	     -6.27367176	      2.76855008	      5.81495413	     -4.03828416	     -3.27124956	    -17.68946814	     30.80934539	    101.10919034	     16.70437367	     -1.43463148	    -18.37863203	     17.01300027	     93.29124779
      4.51666670	     -2.16209781	     -3.24286462	     49.03561340	     -0.45372925	      1.04758621	     -0.10481815	     13.49445587	     -1.00065723	    -16.09996566	     17.18334655	      0.29990597	      3.87908348	    -33.39013114	     -7.49999987	      1.25139404	      0.31291015	      8.93741160	      2.25408099	      0.03934113	     10.53596814	      0.38154159	     -7.49999987	     -6.63775948	      2.81599024	      4.45941121	     -3.73799490	     -3.02259439	    -18.43148571	     31.12130352	    101.32101870	     17.29846086	     -1.02913712	    -18.25665793	     16.93646109	     93.58380259
      4.53333330	     -2.46667839	     -3.11303979	     50.99050678	     -0.47951926	      1.04743814	     -0.09330937	     14.28445930	     -2.21526251	    -16.97044949	     17.39017526	      0.30351582	      3.58196485	    -33.65322975	     -7.49999987	      2.90472172	      1.27888690	     11.04825179	      3.16929876	      0.05531470	      9.86454685	      0.09454638	     -7.49999987	     -7.59523443	      2.80504700	      4.13595729	     -3.57108608	     -2.42540375	    -23.14223266	     33.34626117	    105.60920927	     18.85337747	     -0.30944592	    -16.79321750	     16.49983953	     95.94730443
      4.55000000	     -2.69935233	     -3.13659375	     52.46704134	     -0.48536806	      1.05167283	     -0.09998393	     14.93176216	     -3.25190870	    -17.86852650	     17.49060534	      0.30526865	      2.93626263	    -33.81523127	     -7.49999987	      4.26570518	      2.13538271	     12.41825422	      4.02448473	      0.07024051	      9.19900145	      0.48082913	     -7.49999987	     -8.13430339	      3.05471760	      3.29138859	     -2.98386413	     -2.60665024	    -23.46737310	     34.28942942	    105.71911303	     19.42935423	      0.29619635	    -17.22930333	     16.45456856	     95.96810130
      4.56666670	     -2.79902560	     -3.22838190	     53.71721956	     -0.49215943	      1.05307233	     -0.10447117	     15.24631919	     -4.01161957	    -18.51562326	     17.57644704	      0.30676687	      2.34946693	    -33.82718836	     -7.49999987	      5.24194061	      2.75150455	     13.38589674	      4.67226646	      0.08154643	      8.71608245	      1.11323235	     -7.49999987	     -8.51858871	      3.32386346	      2.92933527	     -2.70377766	     -2.74034039	    -24.37770650	     35.55016042	    105.98484018	     19.76425300	      0.87694968	    -18.00459816	     16.41535332	     96.02800607
      4.58333330	     -2.65263988	     -3.35031151	     54.75802905	     -0.49871744	      1.05261201	     -0.10142034	     15.39675551	     -4.33712820	    -19.19245154	     17.56503340	      0.30656767	      1.99360897	    -33.85522287	     -7.49999987	      6.02422684	      2.97241491	     13.85611435	      5.22582545	      0.09120786	      8.62368595	      2.24407345	     -7.49999987	     -8.87149948	      3.63225590	      3.24505689	     -2.48397838	     -2.63373741	    -26.16023046	     36.82548530	    108.25771492	     20.30947120	      1.61784251	    -20.05365438	     16.36481127	     97.31321751
      4.60000000	     -2.48694618	     -3.46902308	     56.05346233	     -0.50586414	      1.05119274	     -0.10576523	     15.38826327	     -4.75913704	    -20.10789998	     17.89976000	      0.31240975	      1.38922874	    -33.84563380	     -7.49999987	      6.46889801	      3.20021165	     14.74302917	      5.47274660	      0.09551745	      7.98281405	      3.14220318	     -7.49999987	     -8.95473732	      3.84844599	      3.18791992	     -1.99122825	     -2.76599072	    -26.07582064	     37.79780528	    108.29084113	     20.57053184	      2.18171818	    -20.61163860	     16.17074104	     97.25617945
      4.61666670	     -2.29294657	     -3.41633882	     57.13864109	     -0.51246257	      1.04854570	     -0.10196382	     15.48591922	     -5.07171508	    -20.53535781	     18.52866340	      0.32338618	      1.59438357	    -33.79697323	     -7.49999987	      6.95248923	      3.37726657	     15.07982763	      5.97828708	      0.10434079	      8.00411199	      4.35240102	     -7.49999987	     -9.21440927	      3.80981765	      3.88502362	     -1.94327879	     -2.94504906	    -26.02781674	     39.83173397	    108.48140761	     21.38983385	      3.15047860	    -23.04237216	     15.55947354	     96.93176712
